# xmcd CD database file
#
# Track frame offsets:
#	150
#	49750
#	73790
#	131085
#	149245
#	174830
#
# Disc length: 2812 seconds
#
# Revision: 0
# Processed by: cddbd v1.5.1PL0 Copyright (c) Steve Scherf et al.
# Submitted via: CDex 1.51
#
DISCID=5c0afa06
DTITLE=Unlimited Guitars - Live at the Meridien - Etoile, Paris [CD2)
DYEAR=1996
DGENRE=Jazz
TTITLE0=Safari
TTITLE1=Mood 5
TTITLE2=A.J.M
TTITLE3=Nuages
TTITLE4=Oleo
TTITLE5=Ballad for Friends
EXTD=YEAR: 1996
EXTT0=
EXTT1=
EXTT2=
EXTT3=
EXTT4=
EXTT5=
PLAYORDER=
